<?xml version="1.0" encoding="utf-8"?>
<!-- Generator: Adobe Illustrator 22.0.1, SVG Export Plug-In . SVG Version: 6.00 Build 0)  -->
<svg version="1.1"
	 id="svg2" inkscape:version="0.91 r13725" sodipodi:docname="PxrSurface.svg" xmlns:cc="http://creativecommons.org/ns#" xmlns:dc="http://purl.org/dc/elements/1.1/" xmlns:inkscape="http://www.inkscape.org/namespaces/inkscape" xmlns:rdf="http://www.w3.org/1999/02/22-rdf-syntax-ns#" xmlns:sodipodi="http://sodipodi.sourceforge.net/DTD/sodipodi-0.dtd" xmlns:svg="http://www.w3.org/2000/svg"
	 xmlns="http://www.w3.org/2000/svg" xmlns:xlink="http://www.w3.org/1999/xlink" x="0px" y="0px" viewBox="0 0 32 32"
	 style="enable-background:new 0 0 32 32;" xml:space="preserve">
<style type="text/css">
	.st0{fill:#ECECEC;}
	.st1{fill:#BBBBBB;}
	.st2{fill:#A0A0A0;}
	.st3{opacity:0.66;fill:url(#SVGID_1_);enable-background:new    ;}
</style>
<sodipodi:namedview  bordercolor="#666666" borderopacity="0.29803922" id="base" inkscape:bbox-nodes="true" inkscape:bbox-paths="true" inkscape:current-layer="layer3" inkscape:cx="64" inkscape:cy="64" inkscape:document-units="px" inkscape:object-nodes="true" inkscape:object-paths="true" inkscape:pageopacity="0.0" inkscape:pageshadow="2" inkscape:snap-bbox="true" inkscape:snap-bbox-edge-midpoints="true" inkscape:snap-bbox-midpoints="true" inkscape:snap-global="true" inkscape:snap-intersection-paths="true" inkscape:snap-midpoints="true" inkscape:snap-nodes="true" inkscape:snap-smooth-nodes="true" inkscape:window-height="1124" inkscape:window-maximized="1" inkscape:window-width="1920" inkscape:window-x="0" inkscape:window-y="0" inkscape:zoom="7.203125" pagecolor="#ffffff" showgrid="true" units="px">
	<inkscape:grid  dotted="false" empspacing="4" id="grid6266" type="xygrid"></inkscape:grid>
</sodipodi:namedview>
<circle class="st0" cx="16" cy="16" r="14.6"/>
<path class="st1" d="M16,32C7.3,32,0,25,0,16S7,0,16,0s16,7,16,16S24.7,32,16,32z M16,2.1C8.3,2.1,2.1,8.3,2.1,16S8.3,29.9,16,29.9
	S29.9,23.7,29.9,16S23.7,2.1,16,2.1z"/>
<path id="path4421" inkscape:flatsided="false" inkscape:randomized="0" inkscape:rounded="0" inkscape:transform-center-x="-0.0094565778" inkscape:transform-center-y="-1.1566249" sodipodi:arg1="0.96007036" sodipodi:arg2="1.5878811" sodipodi:cx="16" sodipodi:cy="16" sodipodi:r1="12.206556" sodipodi:r2="4.6968551" sodipodi:sides="5" sodipodi:type="star" class="st2" d="
	M23,25.7l-7-5.2l-7.3,5.2l2.8-8.3l-7-5.2h8.7L16,3.8l2.4,8.3h8.7l-7,5.2L23,25.7z"/>
<radialGradient id="SVGID_1_" cx="21.2328" cy="604.2693" r="24.0818" gradientTransform="matrix(1 0 0 1 0 -594)" gradientUnits="userSpaceOnUse">
	<stop  offset="0" style="stop-color:#FFFFFF;stop-opacity:0.6039"/>
	<stop  offset="0.3333" style="stop-color:#FFFFFF;stop-opacity:0"/>
	<stop  offset="0.7102" style="stop-color:#202020;stop-opacity:0.2"/>
	<stop  offset="0.9487" style="stop-color:#000000;stop-opacity:0.7"/>
</radialGradient>
<path class="st3" d="M16,32C7.3,32,0,25,0,16S7,0,16,0s16,7,16,16S24.7,32,16,32z"/>
</svg>
